<?xml version="1.0" standalone="no"?>
<!DOCTYPE svg PUBLIC "-//W3C//DTD SVG 20010904//EN"
 "http://www.w3.org/TR/2001/REC-SVG-20010904/DTD/svg10.dtd">
<svg version="1.0" xmlns="http://www.w3.org/2000/svg"
 width="1024.000000pt" height="1024.000000pt" viewBox="0 0 1024.000000 1024.000000"
 preserveAspectRatio="xMidYMid meet">
<metadata>
Created by potrace 1.14, written by Peter Selinger 2001-2017
</metadata>
<g transform="translate(0.000000,1024.000000) scale(0.100000,-0.100000)"
fill="#000000" stroke="none">
<path d="M1435 10233 c-26 -3 -132 -23 -215 -39 -60 -12 -242 -80 -325 -121
-83 -42 -237 -138 -267 -166 -7 -7 -33 -28 -58 -48 -126 -102 -290 -301 -370
-451 -62 -116 -96 -196 -134 -323 -70 -229 -65 97 -63 -4005 2 -2038 6 -3721
10 -3740 4 -19 15 -66 23 -105 126 -585 605 -1076 1186 -1215 82 -20 129 -20
3913 -20 l3830 0 90 24 c142 39 238 78 405 167 72 38 232 163 314 245 188 186
321 398 400 636 72 215 66 -152 66 4037 0 4163 5 3817 -62 4021 -190 580 -685
997 -1298 1094 -83 13 -542 15 -3755 14 -2013 -1 -3673 -3 -3690 -5z"/>
</g>
</svg>
